<svg width="314" height="365" viewBox="0 0 314 365" fill="none" xmlns="http://www.w3.org/2000/svg">
<g style="mix-blend-mode:soft-light" opacity="0.5">
<path d="M-14 143.07H92.3C92.3 143.07 84.7 119.77 71.9 123.17C59.1 126.47 59.6 129.37 59.6 129.37C59.6 129.37 55.8 109.47 38.7 112.27C21.6 115.07 17.8 128.87 17.8 128.87C17.8 128.87 6.90001 124.57 2.10001 128.87C-2.59999 133.17 -1.69998 135.47 -1.69998 135.47C-1.69998 135.47 -12.1 130.77 -14 143.07Z" fill="white"/>
</g>
<g style="mix-blend-mode:soft-light" opacity="0.8">
<path d="M267 100.216C265.8 96.8161 263.1 90.9161 258.9 89.5161C252.9 87.5161 244 94.1161 244 94.1161C244 94.1161 239.7 78.6161 225.3 78.0161C210.9 77.4161 213.5 93.8161 213.5 93.8161C213.5 93.8161 209.8 92.7161 202.3 90.4161C194.8 88.1161 192.2 95.0161 192.2 95.0161C187.5 93.3161 185.6 97.8161 185 100.216H267Z" fill="white"/>
</g>
<path d="M43.7 0C43.7 0 43.5 2.6 41 2.9C43.5 3.2 43.7 5.8 43.7 5.8C43.7 5.8 43.9 3.2 46.4 2.9C43.9 2.7 43.7 0 43.7 0Z" fill="#F0F0F0"/>
<path d="M177.7 41C177.7 41 177.5 43.6 175 43.9C177.5 44.2 177.7 46.8 177.7 46.8C177.7 46.8 177.9 44.2 180.4 43.9C177.9 43.7 177.7 41 177.7 41Z" fill="#F0F0F0"/>
<path d="M79.7 31C79.7 31 79.5 33.6 77 33.9C79.5 34.2 79.7 36.8 79.7 36.8C79.7 36.8 79.9 34.2 82.4 33.9C79.9 33.7 79.7 31 79.7 31Z" fill="#F0F0F0"/>
<path d="M299.7 100C299.7 100 299.5 102.6 297 102.9C299.5 103.2 299.7 105.8 299.7 105.8C299.7 105.8 299.9 103.2 302.4 102.9C299.8 102.7 299.7 100 299.7 100Z" fill="#F0F0F0"/>
<path d="M183.3 159.6C183.3 159.6 183.1 162.2 180.6 162.5C183.1 162.8 183.3 165.4 183.3 165.4C183.3 165.4 183.5 162.8 186 162.5C183.4 162.3 183.3 159.6 183.3 159.6Z" fill="#F0F0F0"/>
<path d="M139.1 70C139.1 70 138.6 77 132 77.6C138.6 78.3 139.1 85.2 139.1 85.2C139.1 85.2 139.6 78.2 146.2 77.6C139.6 77 139.1 70 139.1 70Z" fill="#F0F0F0"/>
<path d="M15.1 58.7C15.1 58.7 14.6 65.7 8 66.3C14.6 67 15.1 73.9 15.1 73.9C15.1 73.9 15.6 66.9 22.2 66.3C15.6 65.7 15.1 58.7 15.1 58.7Z" fill="#F0F0F0"/>
<path d="M132.2 0C132.2 0 131.8 5.1 127 5.6C131.8 6.1 132.2 11.2 132.2 11.2C132.2 11.2 132.6 6.1 137.4 5.6C132.6 5 132.2 0 132.2 0Z" fill="#F0F0F0"/>
<path d="M58.6 95C58.6 95 58.3 99.5 54 100C58.3 100.4 58.6 105 58.6 105C58.6 105 58.9 100.5 63.2 100C59 99.5 58.6 95 58.6 95Z" fill="#F0F0F0"/>
<path d="M99.5 194.9C99.5 194.9 99.2 199.4 94.9 199.9C99.2 200.3 99.5 204.9 99.5 204.9C99.5 204.9 99.8 200.4 104.1 199.9C99.8 199.4 99.5 194.9 99.5 194.9Z" fill="#F0F0F0"/>
<g style="mix-blend-mode:soft-light" opacity="0.5">
<path d="M237.8 168.5H344.1C344.1 168.5 336.5 145.2 323.7 148.6C310.9 151.9 311.4 154.8 311.4 154.8C311.4 154.8 307.6 134.9 290.5 137.7C273.4 140.5 269.6 154.3 269.6 154.3C269.6 154.3 258.7 150 253.9 154.3C249.2 158.6 250.1 160.9 250.1 160.9C250.1 160.9 239.7 156.2 237.8 168.5Z" fill="white"/>
</g>
<path opacity="0.25" d="M158.9 364.8C228.433 364.8 284.8 351.682 284.8 335.5C284.8 319.318 228.433 306.2 158.9 306.2C89.3674 306.2 33 319.318 33 335.5C33 351.682 89.3674 364.8 158.9 364.8Z" fill="#042030"/>
<path d="M257.5 202.624L158.9 236.324L60.2 202.624L13 271.224L158.9 321.124L304.7 271.224L257.5 202.624Z" fill="#468F81"/>
<path opacity="0.45" d="M30.2 268.424L151.2 314.724L109.6 273.524C109.6 273.524 41.3 257.024 30.2 268.424Z" fill="#240F4F"/>
<path opacity="0.45" d="M287.6 268.424L166.6 314.724L208.2 273.524C208.1 273.524 276.4 257.024 287.6 268.424Z" fill="#240F4F"/>
<path d="M158.9 321.124L13 271.224V277.724L158.9 327.624L304.7 277.724V271.224L158.9 321.124Z" fill="#121514"/>
<path d="M81.2 351.124L98.1 306.824L152.5 325.424L81.2 351.124Z" fill="black"/>
<path opacity="0.45" d="M85.9 338.324L152.5 325.424L98.1 306.824L85.9 338.324Z" fill="black"/>
<path d="M158.9 323.124L81.2 351.124L87 357.224L158.9 331.624L230.7 357.224L236.6 351.124L158.9 323.124Z" fill="#121514"/>
<path d="M236.6 351.124L219.6 306.824L165.2 325.424L236.6 351.124Z" fill="black"/>
<path opacity="0.45" d="M231.8 338.324L165.2 325.424L219.6 306.824L231.8 338.324Z" fill="black"/>
<path d="M158.9 331.624C161.827 331.624 164.2 329.251 164.2 326.324C164.2 323.397 161.827 321.024 158.9 321.024C155.973 321.024 153.6 323.397 153.6 326.324C153.6 329.251 155.973 331.624 158.9 331.624Z" fill="white" fill-opacity="0.5"/>
<path d="M253.3 202.624L158.9 249.624L64.5 202.624C60.2 208.324 25.6 266.024 25.6 266.024C26 266.024 26.3 266.124 26.7 266.124C113.5 274.824 137.6 302.124 145.6 308.724C153.6 315.424 159 314.724 159 314.724C159 314.724 164.4 315.424 172.4 308.724C180.4 302.124 204.5 274.824 291.3 266.124C291.7 266.124 292 266.024 292.4 266.024C292.2 266.024 257.5 208.424 253.3 202.624Z" fill="#0F0F0E"/>
<path d="M292.2 266.024C291.8 266.024 291.5 266.124 291.1 266.124C204.3 274.824 180.2 302.124 172.2 308.724C164.2 315.424 158.8 314.724 158.8 314.724C158.8 314.724 153.4 315.424 145.4 308.724C137.4 302.124 113.3 274.824 26.5 266.124C26.1 266.124 25.8 266.024 25.4 266.024C24.7 267.124 25.4 267.924 25.4 267.924C113.1 276.424 136.4 303.824 144.4 310.524C152.4 317.124 158.7 316.624 158.7 316.624C158.7 316.624 165 317.124 173 310.524C181 303.924 204.3 276.524 292 267.924C292.2 267.924 292.9 267.124 292.2 266.024Z" fill="#121514"/>
<path d="M249.7 197.124C201.4 185.524 158.8 225.224 158.8 225.224C158.8 225.224 116.2 185.524 67.9 197.124C67.9 197.124 54.2 218.124 35.3 253.824C35.3 253.824 130.4 264.524 158.8 304.424C187.2 264.524 282.3 253.824 282.3 253.824C263.4 218.124 249.7 197.124 249.7 197.124Z" fill="#F5EFFB"/>
<path d="M282.3 253.824C282.3 253.824 187.2 264.524 158.8 304.424C130.5 264.524 35.4 253.824 35.4 253.824C35.4 253.824 35.4 257.024 30.1 263.324C30.1 263.324 116.4 269.524 147.8 305.324C155.2 313.724 158.8 312.724 158.8 312.724C158.8 312.724 162.5 313.724 169.8 305.324C201.1 269.524 287.5 263.324 287.5 263.324C282.3 256.924 282.3 253.824 282.3 253.824Z" fill="#DFCBF4"/>
<path d="M244.3 201.324C244.3 201.324 208.2 192.124 158.8 230.424C109.5 192.224 73.3 201.324 73.3 201.324L48.9 248.724C123.1 253.824 158.8 291.324 158.8 291.324C158.8 291.324 194.5 253.824 268.7 248.724L244.3 201.324ZM158.9 286.824C158.9 286.824 125.5 252.624 54.7 245.924L75.2 203.324C75.2 203.324 110.7 196.424 158.9 232.624C207.1 196.424 242.6 203.324 242.6 203.324L263.1 245.924C192.3 252.624 158.9 286.824 158.9 286.824Z" fill="#1B1A1C"/>
<path opacity="0.2" d="M168 266.118C181.333 256.284 223 234.524 251 237.524" stroke="#1B1A1C" stroke-width="3" stroke-linecap="round"/>
<path opacity="0.2" d="M168 238.524C179.833 229.258 210.6 211.105 239 212.612" stroke="#1B1A1C" stroke-width="3" stroke-linecap="round"/>
<path opacity="0.2" d="M168 252.524C180.833 242.546 214.2 222.995 245 224.619" stroke="#1B1A1C" stroke-width="3" stroke-linecap="round"/>
<path opacity="0.2" d="M151 266.118C137.667 256.284 96 234.524 68 237.524" stroke="#1B1A1C" stroke-width="3" stroke-linecap="round"/>
<path opacity="0.2" d="M151 238.524C139.167 229.258 108.4 211.105 80 212.612" stroke="#1B1A1C" stroke-width="3" stroke-linecap="round"/>
<path opacity="0.2" d="M151 252.524C138.167 242.546 104.8 222.995 74 224.619" stroke="#1B1A1C" stroke-width="3" stroke-linecap="round"/>
<path d="M158.9 225.224C158.9 225.224 159.9 221.724 161.8 222.724C161.8 222.724 160.6 279.424 162.6 301.524C163.1 307.024 167.9 314.524 169.8 317.324H167.3L166.6 319.624C166.6 319.624 159.2 307.124 158.9 302.224C157.4 280.224 158.2 230.524 158.9 225.224Z" fill="black"/>
</svg>
